# xmcd
#
# Track frame offsets: 
#        150
#        19153
#        31756
#        38085
#        47493
#        59206
#        64494
#        75280
#        100936
#        167584
#
# Disc length: 2395 seconds
#
# Revision: 0
# Processed by: cddbd v1.5.2PL0 Copyright (c) Steve Scherf et al.
# Submitted via: ExactAudioCopyFreeDBPlugin 1.0
#
DISCID=7909590a
DTITLE=J.L. Charbonnier - Marais: Premier Livre (1686) - Deuxième part
DTITLE=ie, Et Recueil De Basse-Continües CD2
DYEAR=2007
DGENRE=Classical
TTITLE0=Suite Fa Dièze Mineur, 2 Violes (Recueil De B.C.) - Prélude 84
TTITLE1=Suite Fa Dièze Mineur, 2 Violes (Recueil De B.C.) - Allemande 
TTITLE1=85
TTITLE2=Suite Fa Dièze Mineur, 2 Violes (Recueil De B.C.) - Courante 8
TTITLE2=6
TTITLE3=Suite Fa Dièze Mineur, 2 Violes (Recueil De B.C.) - Sarabande 
TTITLE3=87
TTITLE4=Suite Fa Dièze Mineur, 2 Violes (Recueil De B.C.) - Gigue 88
TTITLE5=Suite Fa Dièze Mineur, 2 Violes (Recueil De B.C.) - Menuet 89
TTITLE6=Suite Fa Dièze Mineur, 2 Violes (Recueil De B.C.) - Rondeau 90
TTITLE7=Fantaisie En Si Mineur (Recueil De B.C.)
TTITLE8=Sujet Diversitez (Recueil De B.C.)
TTITLE9=Rondeau En Sol Mineur (Recueil De B.C.)
EXTD=
EXTT0=
EXTT1=
EXTT2=
EXTT3=
EXTT4=
EXTT5=
EXTT6=
EXTT7=
EXTT8=
EXTT9=
PLAYORDER=
